<svg version="1.1" id="Layer_1" xmlns="http://www.w3.org/2000/svg" xmlns:xlink="http://www.w3.org/1999/xlink" x="0px" y="0px"
	 width="100%" viewBox="0 0 500 500" enable-background="new 0 0 500 500" xml:space="preserve">
<path fill="#FFFFFF" opacity="1.000000" stroke="none" 
	d="
M288.000000,501.000000 
	C192.000015,501.000000 96.500046,501.000000 1.000051,501.000000 
	C1.000034,334.333405 1.000034,167.666794 1.000017,1.000141 
	C167.666565,1.000094 334.333130,1.000094 500.999756,1.000047 
	C500.999847,167.666519 500.999847,334.333038 500.999939,500.999786 
	C430.166656,501.000000 359.333344,501.000000 288.000000,501.000000 
M433.050415,272.500000 
	C433.050415,198.747971 433.050415,124.995949 433.050415,51.298630 
	C306.099030,51.298630 179.711853,51.298630 53.369858,51.298630 
	C53.369858,178.651062 53.369858,305.703827 53.369858,432.709167 
	C180.059357,432.709167 306.452179,432.709167 433.050415,432.709167 
	C433.050415,379.445251 433.050415,326.472626 433.050415,272.500000 
z"/>
<path fill="#000000" opacity="1.000000" stroke="none" 
	d="
M433.050415,273.000000 
	C433.050415,326.472626 433.050415,379.445251 433.050415,432.709167 
	C306.452179,432.709167 180.059357,432.709167 53.369858,432.709167 
	C53.369858,305.703827 53.369858,178.651062 53.369858,51.298630 
	C179.711853,51.298630 306.099030,51.298630 433.050415,51.298630 
	C433.050415,124.995949 433.050415,198.747971 433.050415,273.000000 
M168.112793,324.499908 
	C168.400192,333.148956 168.211838,341.846771 169.091553,350.435150 
	C170.276230,362.000580 174.831589,372.095367 185.577393,377.965668 
	C195.934921,383.623871 207.244385,384.297638 218.569092,382.090546 
	C229.677658,379.925568 229.914703,378.970856 225.269608,368.967926 
	C225.144241,368.697968 224.846527,368.508026 224.634995,368.286835 
	C215.663269,370.739746 211.754959,368.040100 211.024582,358.812805 
	C210.840836,356.491425 210.849197,354.151306 210.847046,351.819733 
	C210.832626,336.157532 211.305771,320.475891 210.653152,304.840912 
	C210.296783,296.303284 209.083099,287.502869 206.420898,279.425781 
	C201.700348,265.103699 191.928665,254.203552 179.496918,245.702927 
	C177.298126,244.199432 174.275223,242.484253 178.824295,240.118134 
	C189.710632,234.455750 196.432236,225.186569 201.275757,214.298111 
	C209.254517,196.361450 211.166199,177.409836 209.903381,158.115631 
	C208.684280,139.489685 201.324402,123.754890 186.047623,112.315742 
	C173.041901,102.577164 158.042084,98.492805 142.143753,98.181480 
	C118.992348,97.728119 95.826294,98.019516 72.666489,98.016632 
	C71.897995,98.016541 71.129471,98.269073 70.413864,98.394569 
	C70.413864,101.646957 70.413864,104.587257 70.413864,108.031830 
	C74.992424,108.031830 79.392822,108.031830 83.811897,108.031830 
	C83.811897,195.283203 83.811897,282.022461 83.811897,369.309448 
	C79.408958,369.309448 75.197289,369.309448 70.990707,369.309448 
	C70.990707,372.791229 70.990707,375.723022 70.990707,378.817902 
	C91.474396,378.817902 111.732170,378.817902 132.119690,378.817902 
	C132.119690,375.546997 132.119690,372.465790 132.119690,369.315735 
	C129.234314,369.187195 126.654221,369.072266 124.135399,368.960052 
	C124.135399,328.460052 124.135399,288.388550 124.135399,248.108749 
	C130.017288,248.108749 135.675552,247.772232 141.277435,248.190506 
	C148.973221,248.765121 155.741455,252.198044 159.592590,258.809692 
	C162.945038,264.565186 166.202881,271.148499 166.762177,277.603455 
	C168.081238,292.826996 167.766602,308.192108 168.112793,324.499908 
M373.349091,123.783524 
	C354.106812,161.506439 334.864532,199.229340 315.622253,236.952255 
	C315.401062,236.834702 315.179871,236.717148 314.958679,236.599594 
	C314.958679,193.684052 314.958679,150.768509 314.958679,107.703239 
	C317.809875,107.561020 320.374756,107.433075 323.002808,107.301994 
	C323.002808,104.009483 323.002808,101.227051 323.002808,98.250137 
	C302.612946,98.250137 282.380585,98.250137 262.213440,98.250137 
	C262.213440,101.411263 262.213440,104.309227 262.213440,107.610352 
	C266.598511,107.610352 270.688416,107.610352 274.904907,107.610352 
	C274.904907,194.935959 274.904907,281.843567 274.904907,369.311157 
	C270.494476,369.311157 266.284424,369.311157 262.137878,369.311157 
	C262.137878,372.811432 262.137878,375.745697 262.137878,378.691345 
	C282.604004,378.691345 302.834900,378.691345 322.893127,378.691345 
	C322.893127,375.430115 322.893127,372.484314 322.893127,369.327942 
	C320.066620,369.195770 317.490173,369.075317 314.664185,368.943176 
	C314.664185,366.772949 314.664154,364.965393 314.664154,363.157837 
	C314.664124,335.495819 315.309204,307.811340 314.347290,280.182831 
	C313.961700,269.107727 318.771851,261.508301 324.966492,253.047638 
	C339.520691,291.927734 353.874054,330.271393 368.344086,368.926636 
	C365.420166,369.095337 362.991058,369.235504 360.458862,369.381592 
	C360.458862,372.710602 360.458862,375.752106 360.458862,378.764587 
	C383.718903,378.764587 406.650726,378.764587 429.571075,378.764587 
	C429.571075,375.470947 429.571075,372.432587 429.571075,369.157745 
	C424.897919,369.157745 420.565094,368.918365 416.273193,369.234497 
	C412.924530,369.481171 411.330597,368.379852 410.092468,365.187531 
	C390.587036,314.896332 370.914673,264.669830 351.448303,214.363617 
	C350.688416,212.399796 350.922455,209.473083 351.832275,207.527695 
	C366.811829,175.497910 382.019531,143.574875 397.020691,111.555077 
	C398.393646,108.624535 400.062866,107.752258 403.103424,107.941299 
	C407.208771,108.196526 411.341888,108.004692 415.570984,108.004692 
	C415.570984,104.451363 415.570984,101.391197 415.570984,98.287415 
	C399.899231,98.287415 384.496857,98.287415 369.218414,98.287415 
	C369.218414,101.662270 369.218414,104.739388 369.218414,108.116104 
	C373.258118,108.116104 377.007233,108.116104 381.298065,108.116104 
	C378.624664,113.449226 376.190277,118.305504 373.349091,123.783524 
z"/>
<path fill="#FDFDFD" opacity="1.000000" stroke="none" 
	d="
M168.112793,323.999939 
	C167.766602,308.192108 168.081238,292.826996 166.762177,277.603455 
	C166.202881,271.148499 162.945038,264.565186 159.592590,258.809692 
	C155.741455,252.198044 148.973221,248.765121 141.277435,248.190506 
	C135.675552,247.772232 130.017288,248.108749 124.135399,248.108749 
	C124.135399,288.388550 124.135399,328.460052 124.135399,368.960052 
	C126.654221,369.072266 129.234314,369.187195 132.119690,369.315735 
	C132.119690,372.465790 132.119690,375.546997 132.119690,378.817902 
	C111.732170,378.817902 91.474396,378.817902 70.990707,378.817902 
	C70.990707,375.723022 70.990707,372.791229 70.990707,369.309448 
	C75.197289,369.309448 79.408958,369.309448 83.811897,369.309448 
	C83.811897,282.022461 83.811897,195.283203 83.811897,108.031830 
	C79.392822,108.031830 74.992424,108.031830 70.413864,108.031830 
	C70.413864,104.587257 70.413864,101.646957 70.413864,98.394569 
	C71.129471,98.269073 71.897995,98.016541 72.666489,98.016632 
	C95.826294,98.019516 118.992348,97.728119 142.143753,98.181480 
	C158.042084,98.492805 173.041901,102.577164 186.047623,112.315742 
	C201.324402,123.754890 208.684280,139.489685 209.903381,158.115631 
	C211.166199,177.409836 209.254517,196.361450 201.275757,214.298111 
	C196.432236,225.186569 189.710632,234.455750 178.824295,240.118134 
	C174.275223,242.484253 177.298126,244.199432 179.496918,245.702927 
	C191.928665,254.203552 201.700348,265.103699 206.420898,279.425781 
	C209.083099,287.502869 210.296783,296.303284 210.653152,304.840912 
	C211.305771,320.475891 210.832626,336.157532 210.847046,351.819733 
	C210.849197,354.151306 210.840836,356.491425 211.024582,358.812805 
	C211.754959,368.040100 215.663269,370.739746 224.634995,368.286835 
	C224.846527,368.508026 225.144241,368.697968 225.269608,368.967926 
	C229.914703,378.970856 229.677658,379.925568 218.569092,382.090546 
	C207.244385,384.297638 195.934921,383.623871 185.577393,377.965668 
	C174.831589,372.095367 170.276230,362.000580 169.091553,350.435150 
	C168.211838,341.846771 168.400192,333.148956 168.112793,323.999939 
M159.764786,224.167084 
	C161.869080,218.258789 165.443146,212.439255 165.806290,206.425812 
	C166.966431,187.214142 167.606628,167.911011 167.047653,148.683868 
	C166.809586,140.494873 163.767792,132.152176 160.782898,124.344681 
	C157.827301,116.613800 151.820282,110.746765 143.377213,109.379433 
	C137.123535,108.366669 130.574066,109.180283 124.256073,109.180283 
	C124.256073,152.054794 124.256073,194.705276 124.256073,237.233521 
	C138.000900,238.126709 151.320267,238.758347 159.764786,224.167084 
z"/>
<path fill="#FCFCFC" opacity="1.000000" stroke="none" 
	d="
M373.552490,123.472656 
	C376.190277,118.305504 378.624664,113.449226 381.298065,108.116104 
	C377.007233,108.116104 373.258118,108.116104 369.218414,108.116104 
	C369.218414,104.739388 369.218414,101.662270 369.218414,98.287415 
	C384.496857,98.287415 399.899231,98.287415 415.570984,98.287415 
	C415.570984,101.391197 415.570984,104.451363 415.570984,108.004692 
	C411.341888,108.004692 407.208771,108.196526 403.103424,107.941299 
	C400.062866,107.752258 398.393646,108.624535 397.020691,111.555077 
	C382.019531,143.574875 366.811829,175.497910 351.832275,207.527695 
	C350.922455,209.473083 350.688416,212.399796 351.448303,214.363617 
	C370.914673,264.669830 390.587036,314.896332 410.092468,365.187531 
	C411.330597,368.379852 412.924530,369.481171 416.273193,369.234497 
	C420.565094,368.918365 424.897919,369.157745 429.571075,369.157745 
	C429.571075,372.432587 429.571075,375.470947 429.571075,378.764587 
	C406.650726,378.764587 383.718903,378.764587 360.458862,378.764587 
	C360.458862,375.752106 360.458862,372.710602 360.458862,369.381592 
	C362.991058,369.235504 365.420166,369.095337 368.344086,368.926636 
	C353.874054,330.271393 339.520691,291.927734 324.966492,253.047638 
	C318.771851,261.508301 313.961700,269.107727 314.347290,280.182831 
	C315.309204,307.811340 314.664124,335.495819 314.664154,363.157837 
	C314.664154,364.965393 314.664185,366.772949 314.664185,368.943176 
	C317.490173,369.075317 320.066620,369.195770 322.893127,369.327942 
	C322.893127,372.484314 322.893127,375.430115 322.893127,378.691345 
	C302.834900,378.691345 282.604004,378.691345 262.137878,378.691345 
	C262.137878,375.745697 262.137878,372.811432 262.137878,369.311157 
	C266.284424,369.311157 270.494476,369.311157 274.904907,369.311157 
	C274.904907,281.843567 274.904907,194.935959 274.904907,107.610352 
	C270.688416,107.610352 266.598511,107.610352 262.213440,107.610352 
	C262.213440,104.309227 262.213440,101.411263 262.213440,98.250137 
	C282.380585,98.250137 302.612946,98.250137 323.002808,98.250137 
	C323.002808,101.227051 323.002808,104.009483 323.002808,107.301994 
	C320.374756,107.433075 317.809875,107.561020 314.958679,107.703239 
	C314.958679,150.768509 314.958679,193.684052 314.958679,236.599594 
	C315.179871,236.717148 315.401062,236.834702 315.622253,236.952255 
	C334.864532,199.229340 354.106812,161.506439 373.552490,123.472656 
z"/>
<path fill="#010101" opacity="1.000000" stroke="none" 
	d="
M159.541290,224.456787 
	C151.320267,238.758347 138.000900,238.126709 124.256073,237.233521 
	C124.256073,194.705276 124.256073,152.054794 124.256073,109.180283 
	C130.574066,109.180283 137.123535,108.366669 143.377213,109.379433 
	C151.820282,110.746765 157.827301,116.613800 160.782898,124.344681 
	C163.767792,132.152176 166.809586,140.494873 167.047653,148.683868 
	C167.606628,167.911011 166.966431,187.214142 165.806290,206.425812 
	C165.443146,212.439255 161.869080,218.258789 159.541290,224.456787 
z"/>
</svg>